FDS_states
version=1
nRows=4
nColumns=142
inDegrees=yes

# SIMM Motion File Header:
name FDS_states
datacolumns 142
datarows 4
otherdata 1
range 0.62000000000000000000 0.62093313317109744000
endheader
time	r_z	sternoclavicular_r2	sternoclavicular_r3	unrotscap_r3	unrotscap_r2	acromioclavicular_r2	acromioclavicular_r3	acromioclavicular_r1	unrothum_r1	unrothum_r3	unrothum_r2	elv_angle	shoulder_elv	shoulder1_r2	shoulder_rot	elbow_flexion	pro_sup	deviation	flexion	wrist_hand_r1	wrist_hand_r3	r_z_u	sternoclavicular_r2_u	sternoclavicular_r3_u	unrotscap_r3_u	unrotscap_r2_u	acromioclavicular_r2_u	acromioclavicular_r3_u	acromioclavicular_r1_u	unrothum_r1_u	unrothum_r3_u	unrothum_r2_u	elv_angle_u	shoulder_elv_u	shoulder1_r2_u	shoulder_rot_u	elbow_flexion_u	pro_sup_u	deviation_u	flexion_u	wrist_hand_r1_u	wrist_hand_r3_u	DELT1.activation	DELT1.fiber_length	DELT2.activation	DELT2.fiber_length	DELT3.activation	DELT3.fiber_length	SUPSP.activation	SUPSP.fiber_length	INFSP.activation	INFSP.fiber_length	SUBSC.activation	SUBSC.fiber_length	TMIN.activation	TMIN.fiber_length	TMAJ.activation	TMAJ.fiber_length	PECM1.activation	PECM2.activation	PECM2.fiber_length	PECM3.activation	PECM3.fiber_length	LAT1.activation	LAT1.fiber_length	LAT2.activation	LAT2.fiber_length	LAT3.activation	LAT3.fiber_length	CORB.activation	CORB.fiber_length	TRIlong.activation	TRIlong.fiber_length	TRIlat.activation	TRIlat.fiber_length	TRImed.activation	TRImed.fiber_length	ANC.activation	ANC.fiber_length	SUP.activation	SUP.fiber_length	BIClong.activation	BIClong.fiber_length	BICshort.activation	BICshort.fiber_length	BRA.activation	BRA.fiber_length	BRD.activation	BRD.fiber_length	ECRL.activation	ECRL.fiber_length	ECRB.activation	ECRB.fiber_length	ECU.activation	ECU.fiber_length	FCR.activation	FCR.fiber_length	FCU.activation	FCU.fiber_length	PL.activation	PL.fiber_length	PT.activation	PT.fiber_length	PQ.activation	PQ.fiber_length	FDSL.activation	FDSL.fiber_length	FDSR.activation	FDSR.fiber_length	FDSM.activation	FDSM.fiber_length	FDSI.activation	FDSI.fiber_length	FDPL.activation	FDPL.fiber_length	FDPR.activation	FDPR.fiber_length	FDPM.activation	FDPM.fiber_length	FDPI.activation	FDPI.fiber_length	EDCL.activation	EDCL.fiber_length	EDCR.activation	EDCR.fiber_length	EDCM.activation	EDCM.fiber_length	EDCI.activation	EDCI.fiber_length	EDM.activation	EDM.fiber_length	EIP.activation	EIP.fiber_length	EPL.activation	EPL.fiber_length	EPB.activation	EPB.fiber_length	FPL.activation	FPL.fiber_length	APL.activation	APL.fiber_length
      0.62000000000000000000	     10.00000027505223200000	     -3.55181783311611630000	      1.50438239744051110000	     -1.50438239744051110000	      3.55181783311611630000	     -0.71917086167389044000	      5.81208593117641130000	      2.61249262603185080000	     -2.61249262603185080000	     -5.81208593117641130000	      0.71917086167389044000	    -23.24636578092018300000	     14.67690029897903200000	     23.24636578092018600000	     -6.60673949446729570000	     97.94260086151091100000	     21.66730217624454400000	      0.00000118187660095030	     -0.00000000000000000000	      0.00000160397283532494	     -0.00000000000000000000	      0.00000000000000000000	     -0.40417044447705591000	      0.17118752447491095000	     -0.17118752447491095000	      0.40417044447705591000	     -0.08183629354737267900	      0.66137213801911143000	      0.29728222433354878000	     -0.29728222433354878000	     -0.66137213801911143000	      0.08183629354737267900	     25.37298950865454100000	      1.67012206033649440000	    -25.37298950865454100000	      2.84862004937974470000	     -2.13918347826564140000	      7.63470977454475810000	      0.00000000000000000005	     -0.00000000000000000000	      0.00000000000000000000	     -0.00000000000000000000	      0.87163378499999999000	      0.12604544600000001000	      0.67256622300000002000	      0.09296202000000000600	      0.02000000000000000000	      0.11377399600000000000	      0.22358129299999999000	      0.06723892400000000500	      0.19061961799999999000	      0.07598463599999999400	      0.07967638300000000300	      0.08056485300000000600	      0.02000000000000000000	      0.06156271299999999800	      0.02000000000000000000	      0.12307139300000000000	      0.04537581799999999800	      0.08427640499999999900	      0.10883451199999999000	      0.10934783300000001000	      0.08289209899999999700	      0.02000000000000000000	      0.16824201899999999000	      0.02000000000000000000	      0.13193429900000000000	      0.02000000000000000000	      0.19634833600000001000	      0.02323263500000000100	      0.07376713699999999700	      0.02000000000000000000	      0.17071388600000001000	      0.03389420900000000200	      0.10705713700000000000	      0.03445502000000000300	      0.10198698200000000000	      0.02000000000000000000	      0.02287801899999999900	      0.02000000000000000000	      0.03616511000000000000	      0.08048697100000000400	      0.11356575700000000000	      0.02000000000000000000	      0.12241967099999999000	      0.03015251899999999900	      0.06549626799999999600	      0.02199285200000000000	      0.11691176800000000000	      0.06199320900000000100	      0.05938385799999999800	      0.07174816700000000200	      0.06063302600000000000	      0.06401442300000000100	      0.07021899800000000500	      0.02000000000000000000	      0.04821020300000000000	      0.02000000000000000000	      0.03270597000000000100	      0.02000000000000000000	      0.04750780999999999800	      0.11361366800000000000	      0.03754747800000000200	      0.05155122699999999800	      0.02378849099999999800	      0.02000000000000000000	      0.03349450300000000200	      0.02000000000000000000	      0.05679194299999999800	      0.02000000000000000000	      0.07222141699999999600	      0.02000000000000000000	      0.08441466799999999800	      0.02000000000000000000	      0.07402077299999999800	      0.02000000000000000000	      0.07788550700000000700	      0.02000000000000000000	      0.07408168299999999500	      0.02000000000000000000	      0.07362668999999999500	      0.02000000000000000000	      0.07957491499999999600	      0.06225913600000000000	      0.06727338099999999300	      0.04635312800000000000	      0.07959832199999999900	      0.02684828500000000000	      0.07299336400000000500	      0.02199999999999999900	      0.07947498699999999700	      0.02000000000000000000	      0.06588999099999999500	      0.02000000000000000000	      0.06272632999999999700	      0.02000000000000000000	      0.06764417300000000200	      0.02000000000000000000	      0.05968006000000000000	      0.02000000000000000000	      0.07039143000000000500
      0.62033983776113599000	     10.00000027505223200000	     -3.55195502862739020000	      1.50444050698381160000	     -1.50444050698381160000	      3.55195502862739020000	     -0.71919864097415209000	      5.81231043370958210000	      2.61259353837543660000	     -2.61259353837543660000	     -5.81231043370958210000	      0.71919864097415209000	    -23.23771409976151900000	     14.67746722130868200000	     23.23771409976152200000	     -6.60577056331777430000	     97.94187249766618200000	     21.66990390370767400000	      0.00000118187660084879	     -0.00000000000000030047	      0.00000160397283555673	     -0.00000000000000011378	      0.00000000000000004846	     -0.40322833287066828000	      0.17078849046368746000	     -0.17078849046377326000	      0.40322833287086368000	     -0.08164553511113888100	      0.65983049543799677000	      0.29658926660324464000	     -0.29658926660325835000	     -0.65983049543795835000	      0.08164553511105437900	     25.54348991425875000000	      1.66622904589596850000	    -25.54348991425874300000	      2.85347497327123940000	     -2.14754627733686210000	      7.67781860673448340000	     -0.00000000000063036484	     -0.00000000000182112330	      0.00000000000147263845	     -0.00000000000084199686	      0.87145801911264431000	      0.12604540180581797000	      0.67198332373326186000	      0.09296734648363481900	      0.02000000000000000000	      0.11377545129516690000	      0.22513514537240259000	      0.06723845862343430500	      0.19128493442283317000	      0.07598466923051309900	      0.08056033056737449400	      0.08056437946526873200	      0.02000000000000000000	      0.06156332477689611900	      0.02026517192964594200	      0.12301060038153565000	      0.04531240917133967600	      0.08406972910574372900	      0.10883566308359123000	      0.10898368975545705000	      0.08289335092155496200	      0.02000000000000000000	      0.16824291325266016000	      0.02000000000000000000	      0.13193545655552924000	      0.02000000000000000000	      0.19634934854767891000	      0.02322134603345284200	      0.07376727179256605000	      0.02000000000000000000	      0.17071510854685021000	      0.03422509176400065400	      0.10705728527194223000	      0.03476548570355662800	      0.10198711422218583000	      0.02004128311507167400	      0.02287787703477401800	      0.02000000000000000000	      0.03616543982636459500	      0.08058361616025296000	      0.11356973753387760000	      0.02000000000000000000	      0.12242117697107491000	      0.03014498932546095700	      0.06549655002980428500	      0.02199140011753440700	      0.11691288073830593000	      0.06195945832416966500	      0.05938378009819890400	      0.07155194434254579000	      0.06063635768974064800	      0.06399436080419261500	      0.07021894645018579600	      0.02000000000000000000	      0.04821034842335252000	      0.02000000000000000000	      0.03270616041949078000	      0.02000000000000000000	      0.04750801214056905200	      0.11372247875715158000	      0.03754834077105153500	      0.05148492961744700200	      0.02378819086169254400	      0.02000000000000000000	      0.03349469078653451900	      0.02000000000000000000	      0.05679208687054411500	      0.02000000000000000000	      0.07222132752096217800	      0.02000000000000000000	      0.08441456255748468200	      0.02000000000000000000	      0.07402071546838788500	      0.02000000000000000000	      0.07788544568321499600	      0.02000000000000000000	      0.07408160217728704300	      0.02000000000000000000	      0.07362659641981161900	      0.02000000000000000000	      0.07957493954183306200	      0.06210087894796689100	      0.06727792188314889200	      0.04627034531816695600	      0.07960155144123834400	      0.02684073495479532800	      0.07299381000303155300	      0.02200546248610919800	      0.07947500696656133200	      0.02000000000000000000	      0.06589000189130897500	      0.02000000000000000000	      0.06272640399889141400	      0.02000000000000000000	      0.06764417301784474100	      0.02000000000000000000	      0.05968006000108771300	      0.02000000000000000000	      0.07039143000590038200
      0.62063648546611672000	     10.00000027505223200000	     -3.55207451818502530000	      1.50449111712082590000	     -1.50449111712082590000	      3.55207451818502570000	     -0.71922283517896879000	      5.81250596276244650000	      2.61268142733902580000	     -2.61268142733902580000	     -5.81250596276244650000	      0.71922283517896879000	    -23.23011465577313900000	     14.67796097870463400000	     23.23011465577314300000	     -6.60492333305487110000	     97.94123412424860900000	     21.67218591391518600000	      0.00000118187660064519	     -0.00000000000000082361	      0.00000160397283599188	     -0.00000000000000040096	      0.00000000000000018067	     -0.40236973126195003000	      0.17042482734604994000	     -0.17042482734614076000	      0.40236973126223075000	     -0.08147168575072567800	      0.65842550605942074000	      0.29595773354707433000	     -0.29595773354709465000	     -0.65842550605943373000	      0.08147168575063817900	     25.69192712428649000000	      1.66268111331647650000	    -25.69192712428649000000	      2.85894460447470200000	     -2.15674200311770740000	      7.70556545406545990000	     -0.00000000000087730632	     -0.00000000000213777842	      0.00000000000179708314	     -0.00000000000124601796	      0.87215235832626381000	      0.12604528642719759000	      0.67388561009966641000	      0.09297169593611379100	      0.02000000000000000000	      0.11377673173719442000	      0.22974864379658688000	      0.06723757223831579300	      0.19290864522936313000	      0.07598448361297514800	      0.08270916220481933100	      0.08056331803396313300	      0.02000000000000000000	      0.06156386091460770700	      0.02091242226407295400	      0.12297280331907054000	      0.04581854308152370800	      0.08456828067013821800	      0.10883640014520100000	      0.10891427179221157000	      0.08289431264449294300	      0.02000000000000000000	      0.16824369985290455000	      0.02000000000000000000	      0.13193647438037512000	      0.02000000000000000000	      0.19635023835895535000	      0.02321703480726002400	      0.07376738036441590800	      0.02000000000000000000	      0.17071618301639571000	      0.03606756358996662800	      0.10705613130367816000	      0.03659850819608723200	      0.10198598942941847000	      0.02014215649115828200	      0.02287772824791732900	      0.02000000000000000000	      0.03616572808469319100	      0.08280356570816226100	      0.11357229089726704000	      0.02000000000000000000	      0.12242249367637034000	      0.03012486692389776700	      0.06549681234502437200	      0.02198753694330190400	      0.11691386367988187000	      0.06187308092396563700	      0.05938376327524067000	      0.07147932691233137300	      0.06063921319792522200	      0.06394368989681359400	      0.07021891967534769900	      0.02000000000000000000	      0.04821047623697768300	      0.02000000000000000000	      0.03270632756808130500	      0.02000000000000000000	      0.04750818971796014900	      0.11599805556401574000	      0.03754880171415316000	      0.05217264418537859200	      0.02378786629359227700	      0.02000000000000000000	      0.03349485580146333700	      0.02000000000000000000	      0.05679221331537114700	      0.02000000000000000000	      0.07222124932958796900	      0.02000000000000000000	      0.08441447044300229300	      0.02000000000000000000	      0.07402066519935560100	      0.02000000000000000000	      0.07788539210855856300	      0.02000000000000000000	      0.07408153156175313600	      0.02000000000000000000	      0.07362651463913115500	      0.02000000000000000000	      0.07957496108344840100	      0.06203554523752345700	      0.06728184124511717200	      0.04627673094075860500	      0.07960432183345306200	      0.02687702379397665900	      0.07299418103190050100	      0.02201881399826728000	      0.07947501641494945900	      0.02000000000000000000	      0.06589001140617366200	      0.02000000000000000000	      0.06272646864737060900	      0.02000000000000000000	      0.06764417303187990300	      0.02000000000000000000	      0.05968006000198770200	      0.02000000000000000000	      0.07039143001056723200
      0.62093313317109744000	     10.00000027505223200000	     -3.55219375985830690000	      1.50454162226572750000	     -1.50454162226572750000	      3.55219375985830730000	     -0.71924697919224601000	      5.81270108618494510000	      2.61276913397455730000	     -2.61276913397455730000	     -5.81270108618494510000	      0.71924697919224601000	    -23.22247125289860000000	     14.67845371178737100000	     23.22247125289860400000	     -6.60407377943919990000	     97.94059259877767000000	     21.67447344110116300000	      0.00000118187660037601	     -0.00000000000000152265	      0.00000160397283656494	     -0.00000000000000080134	      0.00000000000000024942	     -0.40155379035291061000	      0.17007923328754598000	     -0.17007923328746477000	      0.40155379035336530000	     -0.08130647431416963800	      0.65709032534347867000	      0.29535757900428511000	     -0.29535757900434362000	     -0.65709032534351575000	      0.08130647431406420900	     25.83988676465060800000	      1.65930946422533720000	    -25.83988676465060100000	      2.86905054298675430000	     -2.16868599461256070000	      7.72154412083815260000	     -0.00000000000092524137	     -0.00000000000255322221	      0.00000000000199971263	     -0.00000000000138040315	      0.87366346760184166000	      0.12604504981725803000	      0.67839618141303171000	      0.09297550916764328600	      0.02000000000000000000	      0.11377802169597090000	      0.23728270588089537000	      0.06723585990211199100	      0.19545810587264326000	      0.07598395772136623500	      0.08606000552688260200	      0.08056129144355718400	      0.02000000000000000000	      0.06156439900131376000	      0.02192313269990910800	      0.12296616375479789000	      0.04737052155030048500	      0.08698751240817147200	      0.10883596650947656000	      0.10999409916638329000	      0.08289487386653966700	      0.02000000000000000000	      0.16824449202327429000	      0.02000000000000000000	      0.13193749910055588000	      0.02000000000000000000	      0.19635113372532609000	      0.02323225185627931400	      0.07376747133305372500	      0.02000000000000000000	      0.17071726432301079000	      0.03935842796038163000	      0.10705234409201109000	      0.03989133483150800900	      0.10198229983259154000	      0.02029997121389488800	      0.02287754069012826200	      0.02000000000000000000	      0.03616601689233367400	      0.08748697760776204300	      0.11357242965149149000	      0.02000000000000000000	      0.12242381246824521000	      0.03009248490200791200	      0.06549709790873858900	      0.02198132136794423600	      0.11691486095631749000	      0.06173438222684460300	      0.05938382331212731900	      0.07172488161134317500	      0.06064195071200303300	      0.06386237527282130600	      0.07021892285865864700	      0.02000000000000000000	      0.04821060485569407500	      0.02000000000000000000	      0.03270649557920923800	      0.02000000000000000000	      0.04750836833799454400	      0.12070573653415902000	      0.03754850616216710800	      0.05413060692586120500	      0.02378732899447191100	      0.02000000000000000000	      0.03349502183053509200	      0.02000000000000000000	      0.05679234055416289300	      0.02000000000000000000	      0.07222117105182557200	      0.02000000000000000000	      0.08441437824841137300	      0.02000000000000000000	      0.07402061487904537700	      0.02000000000000000000	      0.07788533848064446700	      0.02000000000000000000	      0.07408146087775258100	      0.02000000000000000000	      0.07362643276326195900	      0.02000000000000000000	      0.07957498273509107400	      0.06211452625612110700	      0.06728567445025188100	      0.04673394209388651700	      0.07960687991025561200	      0.02701958919198850900	      0.07299446451598039200	      0.02203971163748210200	      0.07947501201423268200	      0.02000000000000000000	      0.06589002092956637600	      0.02000000000000000000	      0.06272653335473370200	      0.02000000000000000000	      0.06764417304461715900	      0.02000000000000000000	      0.05968006000284389900	      0.02000000000000000000	      0.07039143001482467400
